<svg id="rm" xmlns="http://www.w3.org/2000/svg" viewBox="0 0 55.75 41.57">
    <defs>
        <style>.cls-1{fill:#616161;}.cls-2{fill:#f44336;}</style>
    </defs>
    <title>rm-small</title>
    <g id="rm-2" data-name="rm" width="50px">
        <path id="m" class="cls-1" d="M14.07,1.26V3.84a14.39,14.39,0,0,1,3.84-3,9.08,9.08,0,0,1,4-.82,8.07,8.07,0,0,1,3.77,1,13.5,13.5,0,0,1,3.65,2.93A16.76,16.76,0,0,1,33.85,1a12.28,12.28,0,0,1,4.73-1,11.28,11.28,0,0,1,7.84,2.71,11.89,11.89,0,0,1,4,9.32V32.47a5.56,5.56,0,0,1,4,1.29A4.4,4.4,0,0,1,55.75,37a4.33,4.33,0,0,1-1.31,3.26Q53.12,41.57,50,41.57H41.71V12.85A4.37,4.37,0,0,0,41,10a2.82,2.82,0,0,0-2.2-.8,4.81,4.81,0,0,0-2.67.8,19.11,19.11,0,0,0-3.82,4.17V32.47a5.56,5.56,0,0,1,4,1.29A4.4,4.4,0,0,1,37.64,37a4.33,4.33,0,0,1-1.31,3.26Q35,41.57,31.88,41.57H23.61V12.85A4.29,4.29,0,0,0,22.87,10a2.85,2.85,0,0,0-2.23-.82,5.34,5.34,0,0,0-3,1,15.85,15.85,0,0,0-3.56,4V32.47a5.63,5.63,0,0,1,4,1.29A4.37,4.37,0,0,1,19.46,37a4.29,4.29,0,0,1-1.34,3.26q-1.34,1.27-4.47,1.27H5.81q-3.14,0-4.47-1.27a4.74,4.74,0,0,1,0-6.57,5.68,5.68,0,0,1,4.07-1.27V10.36A5.62,5.62,0,0,1,1.31,9.07,4.4,4.4,0,0,1,0,5.79,4.29,4.29,0,0,1,1.34,2.53Q2.67,1.26,5.81,1.26h8.27Z"/>
        <g id="r">
            <path id="nub" class="cls-2" d="M28.87,3.49C26.82,1.27,24-.18,21.47,0,23-.1,13,9.08,21.58,9.2c1.29,0,1.76.6,2.8,1.68a4.43,4.43,0,0,0,3,1.66,3.48,3.48,0,0,0,2.73-1.32A4.78,4.78,0,0,0,31.27,8C31.27,6.49,30.36,5.1,28.87,3.49Z"/>
            <path id="shaft" class="cls-2" d="M21.87,0a9.08,9.08,0,0,0-4,.82,14.39,14.39,0,0,0-3.84,3V1.26H5.81q-3.14,0-4.47,1.27A4.29,4.29,0,0,0,0,5.79,4.4,4.4,0,0,0,1.31,9.07a5.62,5.62,0,0,0,4.07,1.29V32.47a5.68,5.68,0,0,0-4.07,1.27,4.74,4.74,0,0,0,0,6.57q1.34,1.27,4.47,1.27h7.84q3.14,0,4.47-1.27A4.29,4.29,0,0,0,19.46,37a4.37,4.37,0,0,0-1.34-3.28,5.63,5.63,0,0,0-4-1.29V14.13a15.85,15.85,0,0,1,3.56-4,5.34,5.34,0,0,1,3-1h0A75.79,75.79,0,0,1,25.56,1,8,8,0,0,0,21.87,0Z"/>
        </g>
    </g>
</svg>